<svg xmlns="http://www.w3.org/2000/svg" viewBox="0 0 13.67 13"><defs><style>.cls-1{fill:#fff;stroke:#fff;stroke-miterlimit:10;stroke-width:0.4px;}</style></defs><g id="레이어_2" data-name="레이어 2"><g id="레이어_1-2" data-name="레이어 1"><path class="cls-1" d="M8,.67A1.42,1.42,0,0,0,7.45.33a1.64,1.64,0,0,0-1.28,0,1.42,1.42,0,0,0-.53.34L3.86,2.35a.57.57,0,0,0-.14.37.57.57,0,0,0,.16.36.58.58,0,0,0,.38.15.62.62,0,0,0,.39-.14L6.26,1.56V9.64a.51.51,0,0,0,.16.37.56.56,0,0,0,.39.17h0A.56.56,0,0,0,7.21,10a.48.48,0,0,0,.17-.37V1.56L9,3.09a.58.58,0,0,0,.39.15.54.54,0,0,0,.39-.15.47.47,0,0,0,.16-.37.49.49,0,0,0-.16-.37Z"/><path class="cls-1" d="M12.92,8.6a.54.54,0,0,0-.39.15.49.49,0,0,0-.16.37v2.1a.5.5,0,0,1-.17.37.54.54,0,0,1-.39.15h-10a.54.54,0,0,1-.39-.15.49.49,0,0,1-.16-.37V9.12a.5.5,0,0,0-.17-.37A.54.54,0,0,0,.75,8.6h0a.56.56,0,0,0-.39.15.52.52,0,0,0-.16.37v2.1a1.51,1.51,0,0,0,.48,1.11,1.72,1.72,0,0,0,1.18.47h10A1.72,1.72,0,0,0,13,12.33a1.51,1.51,0,0,0,.48-1.11V9.12a.52.52,0,0,0-.16-.37A.56.56,0,0,0,12.92,8.6Z"/></g></g></svg>