<svg width="80" height="80" viewBox="0 0 80 80" fill="none" xmlns="http://www.w3.org/2000/svg">
<circle cx="40" cy="40" r="40" fill="#ED1B23"/>
<path d="M25.0394 21.7148H33.3511C35.1852 21.7148 36.6758 23.2054 36.6758 25.0395V36.6759H25.0394C23.2053 36.6759 21.7147 35.1853 21.7147 33.3512V25.0395C21.7147 23.2054 23.2053 21.7148 25.0394 21.7148Z" fill="white"/>
<path d="M46.6499 21.7148H54.9616C56.7957 21.7148 58.2862 23.2054 58.2862 25.0395V33.3512C58.2862 35.1853 56.7957 36.6759 54.9616 36.6759H43.3252V25.0395C43.3252 23.2054 44.8158 21.7148 46.6499 21.7148Z" fill="white"/>
<path d="M25.0394 43.3921H36.6758V58.3531H25.0394C23.2053 58.3531 21.7147 56.8626 21.7147 55.0285V46.7168C21.7147 44.8827 23.2053 43.3921 25.0394 43.3921Z" fill="white"/>
<path d="M43.3252 43.3921H54.9616C56.7957 43.3921 58.2862 44.8827 58.2862 46.7168V55.0285C58.2862 56.8626 56.7957 58.3531 54.9616 58.3531H43.3252V43.3921Z" fill="white"/>
</svg>
